<svg width="536" height="98" viewBox="0 0 536 98" fill="none" xmlns="http://www.w3.org/2000/svg">
<path d="M119 77.9628V11.3326H131.529V77.9628H119Z" fill="white"/>
<path d="M138.332 54.547V53.0241C138.332 48.0744 139.313 43.8545 141.274 40.3643C143.236 36.8107 145.83 34.1138 149.057 32.2735C152.348 30.3698 155.923 29.4179 159.783 29.4179C164.086 29.4179 167.345 30.1794 169.559 31.7024C171.774 33.2254 173.388 34.8118 174.4 36.4617H176.109V30.7505H187.878V86.3392C187.878 89.5755 186.929 92.1455 185.031 94.0492C183.133 96.0164 180.601 97 177.438 97H145.925V86.5295H173.261C175.033 86.5295 175.919 85.5777 175.919 83.674V71.395H174.21C173.578 72.4103 172.692 73.4573 171.553 74.5361C170.414 75.5514 168.895 76.4081 166.997 77.1061C165.098 77.8042 162.694 78.1532 159.783 78.1532C155.923 78.1532 152.348 77.233 149.057 75.3928C145.83 73.4891 143.236 70.7921 141.274 67.302C139.313 63.7484 138.332 59.4967 138.332 54.547ZM163.2 67.6827C166.87 67.6827 169.939 66.5088 172.407 64.1608C174.875 61.8129 176.109 58.5131 176.109 54.2615V53.3096C176.109 48.9945 174.875 45.6948 172.407 43.4103C170.002 41.0624 166.933 39.8884 163.2 39.8884C159.53 39.8884 156.461 41.0624 153.993 43.4103C151.525 45.6948 150.291 48.9945 150.291 53.3096V54.2615C150.291 58.5131 151.525 61.8129 153.993 64.1608C156.461 66.5088 159.53 67.6827 163.2 67.6827Z" fill="white"/>
<path d="M197.341 77.9628V30.7505H209.111V36.9376H210.819C211.579 35.2877 213.002 33.733 215.091 32.2735C217.179 30.7506 220.343 29.9891 224.582 29.9891C228.252 29.9891 231.448 30.8457 234.169 32.5591C236.953 34.209 239.105 36.5252 240.623 39.5077C242.142 42.4267 242.901 45.8534 242.901 49.7878V77.9628H230.942V50.7396C230.942 47.186 230.056 44.5208 228.284 42.744C226.576 40.9672 224.108 40.0788 220.881 40.0788C217.21 40.0788 214.363 41.3162 212.338 43.791C210.313 46.2024 209.301 49.5974 209.301 53.9759V77.9628H197.341Z" fill="white"/>
<path d="M252.033 77.9628V30.7505H263.993V77.9628H252.033ZM258.013 25.2298C255.862 25.2298 254.027 24.5317 252.508 23.1357C251.052 21.7396 250.325 19.8993 250.325 17.6149C250.325 15.3304 251.052 13.4902 252.508 12.0941C254.027 10.698 255.862 10 258.013 10C260.228 10 262.063 10.698 263.518 12.0941C264.974 13.4902 265.701 15.3304 265.701 17.6149C265.701 19.8993 264.974 21.7396 263.518 23.1357C262.063 24.5317 260.228 25.2298 258.013 25.2298Z" fill="white"/>
<path d="M291.483 77.9628C288.382 77.9628 285.851 77.0109 283.89 75.1072C281.991 73.14 281.042 70.5383 281.042 67.302V40.6499H269.273V30.7505H281.042V16.0919H293.002V30.7505H305.91V40.6499H293.002V65.2079C293.002 67.1116 293.888 68.0635 295.659 68.0635H304.771V77.9628H291.483Z" fill="white"/>
<path d="M332.722 79.2954C328.04 79.2954 323.895 78.3118 320.288 76.3446C316.744 74.314 313.96 71.4902 311.935 67.8731C309.974 64.1926 308.993 59.8775 308.993 54.9278V53.7856C308.993 48.8359 309.974 44.5525 311.935 40.9354C313.897 37.2549 316.65 34.4311 320.193 32.4639C323.737 30.4333 327.85 29.4179 332.532 29.4179C337.152 29.4179 341.17 30.465 344.587 32.5591C348.004 34.5897 350.661 37.4453 352.56 41.1258C354.458 44.7429 355.407 48.9628 355.407 53.7856V57.8786H321.142C321.269 61.1149 322.471 63.7484 324.749 65.779C327.027 67.8096 329.811 68.8249 333.102 68.8249C336.456 68.8249 338.923 68.0952 340.505 66.6357C342.087 65.1762 343.29 63.558 344.112 61.7812L353.889 66.9212C353.003 68.5711 351.705 70.3796 349.997 72.3468C348.352 74.2505 346.137 75.9004 343.353 77.2965C340.569 78.6291 337.025 79.2954 332.722 79.2954ZM321.237 48.9311H343.258C343.005 46.2024 341.897 44.0131 339.936 42.3632C338.037 40.7134 335.538 39.8884 332.437 39.8884C329.21 39.8884 326.647 40.7134 324.749 42.3632C322.851 44.0131 321.68 46.2024 321.237 48.9311Z" fill="white"/>
<path d="M366.281 81.9628V70.9212H375.013V26.3742H366.281V15.3326H393.617C402.539 15.3326 409.31 17.6171 413.929 22.186C418.611 26.6915 420.953 33.4179 420.953 42.3654V54.93C420.953 63.8775 418.611 70.6357 413.929 75.2046C409.31 79.7101 402.539 81.9628 393.617 81.9628H366.281ZM387.542 70.5405H393.806C398.869 70.5405 402.57 69.2079 404.912 66.5427C407.253 63.8775 408.424 60.1335 408.424 55.3107V41.9847C408.424 37.0985 407.253 33.3545 404.912 30.7527C402.57 28.0875 398.869 26.7549 393.806 26.7549H387.542V70.5405Z" fill="#83FBD7"/>
<path d="M422.486 81.9628L439.951 15.3326H461.782L479.246 81.9628H466.338L462.731 67.3042H439.002L435.395 81.9628H422.486ZM441.944 55.6915H459.788L451.721 23.233H450.012L441.944 55.6915Z" fill="#83FBD7"/>
<path d="M508.664 83.2954C500.311 83.2954 493.667 81.0109 488.731 76.442C483.796 71.8096 481.328 65.2101 481.328 56.6433V40.6521C481.328 32.0853 483.796 25.5175 488.731 20.9486C493.667 16.3162 500.311 14 508.664 14C517.017 14 523.661 16.3162 528.596 20.9486C533.532 25.5175 536 32.0853 536 40.6521V56.6433C536 65.2101 533.532 71.8096 528.596 76.442C523.661 81.0109 517.017 83.2954 508.664 83.2954ZM508.664 72.0635C513.347 72.0635 516.985 70.6991 519.579 67.9705C522.174 65.2418 523.471 61.593 523.471 57.0241V40.2713C523.471 35.7024 522.174 32.0536 519.579 29.3249C516.985 26.5963 513.347 25.2319 508.664 25.2319C504.045 25.2319 500.406 26.5963 497.749 29.3249C495.154 32.0536 493.857 35.7024 493.857 40.2713V57.0241C493.857 61.593 495.154 65.2418 497.749 67.9705C500.406 70.6991 504.045 72.0635 508.664 72.0635Z" fill="#83FBD7"/>
<path fill-rule="evenodd" clip-rule="evenodd" d="M98.9319 49C98.9319 76.062 76.9938 98 49.9319 98C22.8699 98 0.931884 76.062 0.931884 49C0.931885 21.938 22.8699 1.49149e-07 49.9319 3.33134e-07C76.9938 5.17119e-07 98.9319 21.938 98.9319 49ZM61.2311 86.1507C74.835 81.0494 84.6088 66.9931 84.6088 50.4518C84.6088 34.4914 64.2846 19.1426 54.7555 12.8234C51.806 10.8674 48.0578 10.8674 45.1083 12.8234C35.5792 19.1426 15.2549 34.4914 15.2549 50.4518C15.2549 66.9931 25.0287 81.0493 38.6326 86.1507C41.8651 89.3499 45.7513 91.2154 49.9318 91.2154C54.1124 91.2154 57.9985 89.3499 61.2311 86.1507Z" fill="white"/>
<path fill-rule="evenodd" clip-rule="evenodd" d="M64.1209 74.9472C69.6386 69.3131 73.1942 60.463 73.1942 50.511C73.1942 38.8454 62.2819 27.58 55.4164 21.6468C52.2511 18.9113 47.683 18.9113 44.5177 21.6468C37.6522 27.58 26.7399 38.8454 26.7399 50.511C26.7399 59.3895 29.5698 67.391 34.0982 73.0144C33.3469 70.5711 32.9338 67.9062 32.9338 65.1164C32.9338 57.7756 39.3219 50.6633 44.1526 46.3344C47.2046 43.5994 51.6971 43.5994 54.7492 46.3344C59.5799 50.6633 65.968 57.7756 65.968 65.1164C65.968 68.6611 65.3011 72.0042 64.1209 74.9472Z" fill="#83FBD7"/>
<path d="M60.8064 72.075C60.8064 80.0358 55.9534 86.4893 49.967 86.4893C43.9806 86.4893 39.1277 80.0358 39.1277 72.075C39.1277 68.0072 41.9579 64.0435 44.7259 61.1396C47.6178 58.1056 52.3162 58.1056 55.2082 61.1396C57.9762 64.0435 60.8064 68.0072 60.8064 72.075Z" fill="#83FBD7"/>
</svg>